<?xml version="1.0" standalone="no"?><!DOCTYPE svg PUBLIC "-//W3C//DTD SVG 1.1//EN" "http://www.w3.org/Graphics/SVG/1.1/DTD/svg11.dtd"><svg t="1606363651614" class="icon" viewBox="0 0 1024 1024" version="1.1" xmlns="http://www.w3.org/2000/svg" p-id="4249" xmlns:xlink="http://www.w3.org/1999/xlink" width="200" height="200"><defs><style type="text/css"></style></defs><path d="M238.965533 664.900366c-12.063757 0-21.843494 9.779737-21.843494 21.843494 0 12.063757 9.779737 21.842471 21.843494 21.842471l109.214401 0c12.063757 0 21.842471-9.779737 21.842471-21.842471 0-12.063757-9.779737-21.843494-21.842471-21.843494L238.965533 664.900366z" p-id="4250"></path><path d="M457.394335 337.25614c12.06171 0 21.840424-9.779737 21.840424-21.842471 0-12.063757-9.779737-21.843494-21.840424-21.843494l-21.845541 0L435.548794 249.884211c0-12.063757-9.779737-21.842471-21.843494-21.842471s-21.840424 9.779737-21.840424 21.842471l0 43.685965-87.37193 0L304.492946 249.884211c0-12.063757-9.781784-21.842471-21.842471-21.842471-12.063757 0-21.845541 9.779737-21.845541 21.842471l0 43.685965-21.843494 0c-12.063757 0-21.840424 9.779737-21.840424 21.843494 0 12.063757 9.776667 21.842471 21.840424 21.842471l87.37193 0 0 87.37193-87.37193 0c-12.063757 0-21.840424 9.779737-21.840424 21.842471s9.776667 21.842471 21.840424 21.842471l87.37193 0 0 87.37193c0 12.063757 9.781784 21.843494 21.842471 21.843494 12.063757 0 21.845541-9.779737 21.845541-21.843494l0-87.37193 87.37193 0c12.06171 0 21.840424-9.779737 21.840424-21.842471s-9.779737-21.842471-21.840424-21.842471l-87.37193 0 0-87.37193L457.394335 337.25614z" p-id="4251"></path><path d="M173.436074 839.644225c-24.127514 0-43.685965-19.558451-43.685965-43.688012L129.750109 162.515351c0-24.127514 19.558451-43.685965 43.685965-43.685965l567.914474 0c24.127514 0 43.685965 19.558451 43.685965 43.685965l0 253.104555c23.143093 6.888897 45.040822 16.538675 65.528436 28.411073l0-303.359123c0-48.251957-39.119973-87.37193-87.37193-87.37193L151.59565 53.299927c-48.255027 0-87.373976 39.119973-87.373976 87.37193L64.221674 817.798684c0 48.255027 39.119973 87.373976 87.373976 87.373976l311.979454 0c-16.663518-19.824511-30.637788-41.890063-41.888016-65.528436L173.436074 839.644225z" p-id="4252"></path><path d="M566.607712 271.729751c-12.063757 0-21.840424 9.778714-21.840424 21.842471 0 12.063757 9.776667 21.842471 21.840424 21.842471l109.214401 0c12.063757 0 21.843494-9.779737 21.843494-21.842471 0-12.063757-9.779737-21.842471-21.843494-21.842471L566.607712 271.729751z" p-id="4253"></path><path d="M697.664583 446.470541c-144.762011 0-262.115789 117.353778-262.115789 262.115789 0 144.758941 117.353778 262.11272 262.115789 262.11272s262.11272-117.353778 262.11272-262.11272C959.778326 563.824319 842.424548 446.470541 697.664583 446.470541zM785.036513 764.303306 649.582495 764.303306l25.396413 42.828434c2.509147 4.231371-3.491521 12.174274-13.395078 17.74106-9.903557 5.569856-19.970844 6.65456-22.477944 2.423189 0 0-50.656727-76.553537-50.656727-84.836177 0-0.773619 0.361227-1.427512 0.441045-2.176572 0.052189-0.629333 0.134053-1.240247 0.38988-1.932002 1.980097-10.023284 10.407024-17.733896 21.011546-17.733896l5.450129 0c1.714038-0.239454 3.15383-0.174985 4.508687 0l164.785044 0c12.063757 0 21.840424 9.781784 21.840424 21.845541C806.880007 754.524592 797.10027 764.303306 785.036513 764.303306zM806.439986 657.265478c-0.055259 0.632403-0.134053 1.240247-0.38988 1.932002-1.980097 10.023284-10.407024 17.733896-21.012569 17.733896l-5.450129 0c-1.714038 0.2415-3.15383 0.177032-4.511757 0L610.293677 676.931377c-12.063757 0-21.842471-9.779737-21.842471-21.842471 0-12.063757 9.779737-21.843494 21.842471-21.843494l135.454018 0-25.396413-42.828434c-2.5071-4.231371 3.491521-12.173251 13.397125-17.74106 9.903557-5.569856 19.967774-6.65456 22.474874-2.425236 0 0 50.656727 76.555583 50.656727 84.838224C806.880007 655.861502 806.51878 656.515395 806.439986 657.265478z" p-id="4254"></path></svg>