<?xml version="1.0" standalone="no"?><!DOCTYPE svg PUBLIC "-//W3C//DTD SVG 1.1//EN" "http://www.w3.org/Graphics/SVG/1.1/DTD/svg11.dtd"><svg t="1592299139631" class="icon" viewBox="0 0 1024 1024" version="1.1" xmlns="http://www.w3.org/2000/svg" p-id="3337" xmlns:xlink="http://www.w3.org/1999/xlink" width="200" height="200"><defs><style type="text/css"></style></defs><path d="M54.690909 645.818182c-16.290909 0-29.090909-12.8-29.090909-29.090909s12.8-29.090909 29.090909-29.090909c41.890909 0 75.636364-33.745455 75.636364-75.636364s-33.745455-75.636364-75.636364-75.636364c-16.290909 0-29.090909-12.8-29.090909-29.090909s12.8-29.090909 29.090909-29.090909c73.309091 0 133.818182 60.509091 133.818182 133.818182S128 645.818182 54.690909 645.818182z" p-id="3338" fill="#e1e1e1"></path><path d="M878.545455 876.218182H147.781818c-67.490909 0-122.181818-54.690909-122.181818-122.181818v-128c0-16.290909 12.8-29.090909 29.090909-29.090909s29.090909 12.8 29.090909 29.090909v128c0 34.909091 29.090909 64 64 64h730.763637c34.909091 0 64-29.090909 64-64V616.727273c0-16.290909 12.8-29.090909 29.090909-29.090909S1000.727273 600.436364 1000.727273 616.727273v137.309091c0 67.490909-54.690909 122.181818-122.181818 122.181818zM971.636364 436.363636c-16.290909 0-29.090909-12.8-29.090909-29.090909V269.963636c0-34.909091-29.090909-64-64-64H147.781818c-34.909091 0-64 29.090909-64 64V407.272727c0 16.290909-12.8 29.090909-29.090909 29.090909S25.6 423.563636 25.6 407.272727V269.963636c0-67.490909 54.690909-122.181818 122.181818-122.181818h730.763637c67.490909 0 122.181818 54.690909 122.181818 122.181818V407.272727c0 16.290909-12.8 29.090909-29.090909 29.090909z" p-id="3339" fill="#e1e1e1"></path><path d="M971.636364 645.818182C898.327273 645.818182 837.818182 585.309091 837.818182 512s60.509091-133.818182 133.818182-133.818182c16.290909 0 29.090909 12.8 29.090909 29.090909s-12.8 29.090909-29.090909 29.090909c-41.890909 0-75.636364 33.745455-75.636364 75.636364s33.745455 75.636364 75.636364 75.636364c16.290909 0 29.090909 12.8 29.090909 29.090909s-12.8 29.090909-29.090909 29.090909z" p-id="3340" fill="#e1e1e1"></path><path d="M384 868.072727c-16.290909 0-29.090909-12.8-29.090909-29.090909V674.909091c0-16.290909 12.8-29.090909 29.090909-29.090909s29.090909 12.8 29.090909 29.090909v164.072727c0 16.290909-12.8 29.090909-29.090909 29.090909zM384 595.781818c-16.290909 0-29.090909-12.8-29.090909-29.090909v-108.218182c0-16.290909 12.8-29.090909 29.090909-29.090909s29.090909 12.8 29.090909 29.090909v108.218182c0 16.290909-12.8 29.090909-29.090909 29.090909zM384 378.181818c-16.290909 0-29.090909-12.8-29.090909-29.090909V187.345455c0-16.290909 12.8-29.090909 29.090909-29.09091s29.090909 12.8 29.090909 29.09091V349.090909c0 16.290909-12.8 29.090909-29.090909 29.090909z" opacity=".7" p-id="3341" fill="#e1e1e1"></path></svg>