<?xml version="1.0" standalone="no"?><!DOCTYPE svg PUBLIC "-//W3C//DTD SVG 1.1//EN" "http://www.w3.org/Graphics/SVG/1.1/DTD/svg11.dtd"><svg t="1588470852563" class="icon" viewBox="0 0 1024 1024" version="1.1" xmlns="http://www.w3.org/2000/svg" p-id="2494" xmlns:xlink="http://www.w3.org/1999/xlink" width="200" height="200"><defs><style type="text/css"></style></defs><path d="M597.333333 512 426.666667 341.333333 426.666667 469.333333 85.333333 469.333333 85.333333 554.666667 426.666667 554.666667 426.666667 682.666667M853.333333 768 853.333333 256C853.333333 208.64 814.933333 170.666667 768 170.666667L256 170.666667C209.066667 170.666667 170.666667 209.066667 170.666667 256L170.666667 384 256 384 256 256 768 256 768 768 256 768 256 640 170.666667 640 170.666667 768C170.666667 814.933333 209.066667 853.333333 256 853.333333L768 853.333333C814.933333 853.333333 853.333333 814.933333 853.333333 768Z" p-id="2495"></path></svg>