<?xml version="1.0" standalone="no"?><!DOCTYPE svg PUBLIC "-//W3C//DTD SVG 1.1//EN" "http://www.w3.org/Graphics/SVG/1.1/DTD/svg11.dtd"><svg t="1607686144724" class="icon" viewBox="0 0 1024 1024" version="1.1" xmlns="http://www.w3.org/2000/svg" p-id="3160" xmlns:xlink="http://www.w3.org/1999/xlink" width="200" height="200"><defs><style type="text/css"></style></defs><path d="M1001.6337 482.4L523.5337 960.5c-12.4 12.4-28.7 20.1-46.1 22l-393.2 40.8c-48.3 5-88.9-35.7-83.8-83.9l41.4-392.5c1.8-17.4 9.6-33.6 21.9-46L541.9337 22.7c29.8-29.8 78.2-29.8 108 0l351.8 351.8c29.8 29.8 29.8 78.1-0.1 107.9z m-509.1 413l413-413c29.8-29.8 29.8-78.2 0-108L649.9337 118.8c-29.8-29.8-78.2-29.8-108 0L128.8337 531.9a76.02 76.02 0 0 0-21.9 46L76.8337 863.1c-5.1 48.3 35.5 89 83.8 83.9l285.8-29.6c17.4-1.8 33.7-9.6 46.1-22z" p-id="3161"></path><path d="M352.4337 814.7c-39.4 39.4-103.3 39.4-142.7 0-39.4-39.4-39.4-103.3 0-142.7 39.4-39.4 103.3-39.4 142.7 0 39.4 39.4 39.4 103.3 0 142.7zM599.7337 745.9c-14.2 14.2-37.3 14.2-51.5 0L278.5337 476.1c-14.2-14.2-14.2-37.3 0-51.5 14.2-14.2 37.3-14.2 51.5 0l269.7 269.7c14.2 14.3 14.2 37.3 0 51.6z" p-id="3162"></path></svg>