<?xml version="1.0" standalone="no"?><!DOCTYPE svg PUBLIC "-//W3C//DTD SVG 1.1//EN" "http://www.w3.org/Graphics/SVG/1.1/DTD/svg11.dtd"><svg t="1605249406910" class="icon" viewBox="0 0 1024 1024" version="1.1" xmlns="http://www.w3.org/2000/svg" p-id="8851" xmlns:xlink="http://www.w3.org/1999/xlink" width="200" height="200"><defs><style type="text/css"></style></defs><path d="M781.824 343.466667 242.133333 343.466667c-11.797333 0-21.354667 9.557333-21.354667 21.354667 0 11.797333 9.557333 21.354667 21.354667 21.354667l539.690667 0c11.84 0 21.376-9.578667 21.376-21.354667C803.2 353.045333 793.664 343.466667 781.824 343.466667z" p-id="8852"></path><path d="M242.133333 533.376l441.578667 0c11.84 0 21.376-9.6 21.376-21.376s-9.536-21.354667-21.376-21.354667L242.133333 490.645333c-11.797333 0-21.354667 9.557333-21.354667 21.354667S230.336 533.376 242.133333 533.376z" p-id="8853"></path><path d="M781.824 637.781333 242.133333 637.781333c-11.797333 0-21.354667 9.557333-21.354667 21.376 0 11.84 9.557333 21.376 21.354667 21.376l539.690667 0c11.84 0 21.376-9.536 21.376-21.376C803.2 647.36 793.664 637.781333 781.824 637.781333z" p-id="8854"></path><path d="M683.712 785.002667 242.133333 785.002667c-11.797333 0-21.354667 9.557333-21.354667 21.376 0 11.84 9.557333 21.354667 21.354667 21.354667l441.578667 0c11.84 0 21.376-9.514667 21.376-21.354667C705.088 794.56 695.552 785.002667 683.712 785.002667z" p-id="8855"></path><path d="M781.824 122.666667l-35.008 0c-12.906667-28.864-41.770667-49.088-75.370667-49.088l-66.922667 0C594.794667 31.509333 556.949333 0 512 0c-45.034667 0-82.816 31.509333-92.544 73.578667l-66.922667 0c-33.621333 0-62.485333 20.224-75.413333 49.088l-23.765333 0c-95.765333 0-179.776 78.762667-179.776 168.554667L73.578667 855.466667c0 89.749333 84.010667 168.533333 179.776 168.533333l528.469333 0c92.906667 0 168.576-75.626667 168.554667-168.533333L950.378667 291.221333C950.4 198.272 874.773333 122.666667 781.824 122.666667zM352.533333 116.309333l85.888 0c11.776 0 21.354667-9.557333 21.354667-21.354667 0-28.778667 23.445333-52.224 52.224-52.224 28.8 0 52.202667 23.424 52.202667 52.224 0 11.797333 9.536 21.354667 21.333333 21.354667l85.909333 0c21.994667 0 39.957333 17.92 39.957333 39.978667 0 22.037333-17.962667 39.978667-39.957333 39.978667l-318.933333 0c-22.058667 0-39.978667-17.941333-39.978667-39.978667C312.554667 134.229333 330.517333 116.309333 352.533333 116.309333zM907.648 855.466667c0 69.376-56.448 125.802667-125.802667 125.802667L253.354667 981.269333c-73.002667 0-137.045333-58.794667-137.045333-125.802667L116.309333 291.221333c0-67.029333 64.042667-125.824 137.045333-125.824l17.386667 0c4.608 41.28 39.317333 73.6 81.770667 73.6l318.933333 0c42.453333 0 77.141333-32.32 81.749333-73.6l28.629333 0c69.376 0 125.802667 56.448 125.802667 125.824L907.626667 855.466667z" p-id="8856"></path></svg>