<?xml version="1.0" standalone="no"?><!DOCTYPE svg PUBLIC "-//W3C//DTD SVG 1.1//EN" "http://www.w3.org/Graphics/SVG/1.1/DTD/svg11.dtd"><svg t="1606363547951" class="icon" viewBox="0 0 1024 1024" version="1.1" xmlns="http://www.w3.org/2000/svg" p-id="3470" xmlns:xlink="http://www.w3.org/1999/xlink" width="200" height="200"><defs><style type="text/css"></style></defs><path d="M864 64l-704 0C142.336 64 128 78.336 128 96l0 832C128 945.664 142.336 960 160 960l704 0c17.664 0 32-14.336 32-32l0-832C896 78.336 881.664 64 864 64zM832 896 192 896 192 128l640 0L832 896z" p-id="3471"></path><path d="M353.92 320c17.6 0 32-14.336 32-32S371.584 256 353.92 256L353.28 256C335.616 256 321.6 270.336 321.6 288S336.256 320 353.92 320z" p-id="3472"></path><path d="M353.92 512c17.6 0 32-14.336 32-32S371.584 448 353.92 448L353.28 448C335.616 448 321.6 462.336 321.6 480S336.256 512 353.92 512z" p-id="3473"></path><path d="M353.92 704c17.6 0 32-14.336 32-32S371.584 640 353.92 640L353.28 640c-17.6 0-31.616 14.336-31.616 32S336.256 704 353.92 704z" p-id="3474"></path><path d="M480 320l192 0C689.664 320 704 305.664 704 288S689.664 256 672 256l-192 0C462.336 256 448 270.336 448 288S462.336 320 480 320z" p-id="3475"></path><path d="M480 512l192 0C689.664 512 704 497.664 704 480S689.664 448 672 448l-192 0C462.336 448 448 462.336 448 480S462.336 512 480 512z" p-id="3476"></path><path d="M480 704l192 0c17.664 0 32-14.336 32-32S689.664 640 672 640l-192 0C462.336 640 448 654.336 448 672S462.336 704 480 704z" p-id="3477"></path></svg>