<?xml version="1.0" standalone="no"?><!DOCTYPE svg PUBLIC "-//W3C//DTD SVG 1.1//EN" "http://www.w3.org/Graphics/SVG/1.1/DTD/svg11.dtd"><svg t="1607087587038" class="icon" viewBox="0 0 1073 1024" version="1.1" xmlns="http://www.w3.org/2000/svg" p-id="2980" xmlns:xlink="http://www.w3.org/1999/xlink" width="209.5703125" height="200"><defs><style type="text/css"></style></defs><path d="M706.608762 804.376381C704.999619 806.863238 705.389714 806.278095 706.608762 804.376381L706.608762 804.376381z" p-id="2981"></path><path d="M706.608762 804.376381c0.585143-0.926476 1.219048-1.852952 2.486857-3.900952C708.217905 801.840762 707.34019 803.206095 706.608762 804.376381z" p-id="2982"></path><path d="M195.047619 188.806095 194.998857 97.52381 0 97.52381l0 877.714286c0 48.761905 53.638095 48.761905 53.638095 48.761905L1024 1024c0 0 48.761905 0 48.761905-48.761905L1072.761905 97.52381l-195.047619 0 0 91.233524C877.714286 219.37981 844.946286 243.809524 804.522667 243.809524l-48.664381 0C715.288381 243.809524 682.666667 219.184762 682.666667 188.806095L682.666667 97.52381 390.095238 97.52381l0 91.233524C390.095238 219.37981 357.327238 243.809524 316.903619 243.809524L268.239238 243.809524C227.669333 243.809524 195.047619 219.184762 195.047619 188.806095zM438.857143 877.714286 391.314286 877.714286l0-291.498667L292.571429 586.215619l0-33.01181c35.937524-3.023238 61.001143-8.094476 75.190857-15.213714 14.189714-7.119238 24.81981-23.893333 31.792762-50.371048L438.857143 487.619048 438.857143 877.714286zM758.735238 805.059048C738.011429 853.479619 704.121905 877.714286 657.066667 877.714286c-42.422857 0-74.020571-19.797333-94.744381-59.392C545.01181 785.261714 536.380952 740.888381 536.380952 685.202286c0-43.154286 5.168762-80.164571 15.555048-111.128381C571.343238 516.437333 606.45181 487.619048 657.310476 487.619048c45.738667 0 78.799238 20.23619 99.181714 60.708571C772.291048 579.632762 780.190476 622.494476 780.190476 676.961524 780.190476 728.600381 773.022476 771.267048 758.735238 805.059048zM975.238095 292.571429l0 48.761905L97.52381 341.333333 97.52381 292.571429 975.238095 292.571429z" p-id="2983"></path><path d="M659.846095 536.380952c-25.892571 0-44.81219 12.726857-56.758857 38.180571C591.140571 600.064 585.142857 637.561905 585.142857 687.152762c0 37.302857 3.803429 67.291429 11.459048 89.965714C608.353524 811.641905 628.345905 828.952381 656.676571 828.952381c22.77181 0 40.96-10.581333 54.467048-31.695238C724.650667 776.143238 731.428571 736.792381 731.428571 679.204571c0-41.545143-4.87619-75.776-14.677333-102.595048C706.998857 549.790476 688.030476 536.380952 659.846095 536.380952z" p-id="2984"></path><path d="M828.952381 146.334476 828.952381 48.713143C828.952381 21.796571 807.058286 0 780.190476 0c-26.916571 0-48.761905 21.796571-48.761905 48.713143l0 97.621333C731.428571 173.251048 753.322667 195.047619 780.190476 195.047619 807.107048 195.047619 828.952381 173.251048 828.952381 146.334476z" p-id="2985"></path><path d="M304.761905 195.047619C324.949333 195.047619 341.333333 178.761143 341.333333 158.378667L341.333333 36.668952C341.333333 16.432762 324.998095 0 304.761905 0L280.380952 0C260.193524 0 243.809524 16.286476 243.809524 36.668952l0 121.660952C243.809524 178.614857 260.144762 195.047619 280.380952 195.047619L304.761905 195.047619z" p-id="2986"></path></svg>