<?xml version="1.0" standalone="no"?><!DOCTYPE svg PUBLIC "-//W3C//DTD SVG 1.1//EN" "http://www.w3.org/Graphics/SVG/1.1/DTD/svg11.dtd"><svg t="1594276450099" class="icon" viewBox="0 0 1024 1024" version="1.1" xmlns="http://www.w3.org/2000/svg" p-id="1525" xmlns:xlink="http://www.w3.org/1999/xlink" width="200" height="200"><defs><style type="text/css"></style></defs><path d="M891.733333 680.533333c-12.8 0-21.333333 8.533333-21.333333 21.333334v174.933333c0 23.466667-19.2 42.666667-42.666667 42.666667H185.6c-23.466667 0-42.666667-19.2-42.666667-42.666667v-490.666667c0-23.466667 19.2-42.666667 42.666667-42.666666h642.133333c23.466667 0 42.666667 19.2 42.666667 42.666666v113.066667c0 12.8 8.533333 21.333333 21.333333 21.333333s21.333333-8.533333 21.333334-21.333333v-113.066667c0-34.133333-21.333333-66.133333-51.2-78.933333l12.8-49.066667c6.4-21.333333 2.133333-44.8-10.666667-64-12.8-19.2-29.866667-34.133333-53.333333-38.4L462.933333 66.133333c-21.333333-4.266667-42.666667-4.266667-59.733333 2.133334-19.2 8.533333-34.133333 23.466667-38.4 42.666666l-6.4 27.733334-57.6-14.933334c-44.8-10.666667-91.733333 17.066667-104.533333 61.866667l-29.866667 115.2H170.666667c-38.4 8.533333-68.266667 42.666667-68.266667 83.2v490.666667c0 46.933333 38.4 85.333333 85.333333 85.333333h642.133334c46.933333 0 85.333333-38.4 85.333333-85.333333v-174.933334c-2.133333-10.666667-12.8-19.2-23.466667-19.2zM403.2 121.6c2.133333-6.4 8.533333-10.666667 12.8-12.8 10.666667-4.266667 21.333333-4.266667 34.133333-2.133333l349.866667 87.466666c10.666667 2.133333 21.333333 10.666667 25.6 19.2 6.4 10.666667 8.533333 21.333333 4.266667 32l-12.8 53.333334h-32l2.133333-8.533334c2.133333-8.533333 2.133333-25.6-23.466667-42.666666-12.8-8.533333-29.866667-14.933333-49.066666-19.2L396.8 149.333333l6.4-27.733333zM234.666667 196.266667c6.4-23.466667 29.866667-36.266667 51.2-32L704 268.8c19.2 4.266667 34.133333 12.8 40.533333 17.066667l-2.133333 12.8h-533.333333L234.666667 196.266667z" fill="#e1e1e1" p-id="1526"></path><path d="M633.6 620.8c12.8 0 21.333333-8.533333 21.333333-21.333333s-8.533333-21.333333-21.333333-21.333334h-87.466667l87.466667-87.466666c8.533333-8.533333 8.533333-21.333333 0-29.866667s-21.333333-8.533333-29.866667 0L512 552.533333l-91.733333-91.733333c-8.533333-8.533333-21.333333-8.533333-29.866667 0s-8.533333 21.333333 0 29.866667l87.466667 87.466666h-78.933334c-12.8 0-21.333333 8.533333-21.333333 21.333334s8.533333 21.333333 21.333333 21.333333h96v46.933333h-96c-12.8 0-21.333333 8.533333-21.333333 21.333334s8.533333 21.333333 21.333333 21.333333h96v74.666667c0 12.8 8.533333 21.333333 21.333334 21.333333s21.333333-8.533333 21.333333-21.333333v-74.666667h96c12.8 0 21.333333-8.533333 21.333333-21.333333s-8.533333-21.333333-21.333333-21.333334h-96v-46.933333h96z" fill="#e1e1e1" p-id="1527"></path><path d="M891.733333 599.466667m-32 0a32 32 0 1 0 64 0 32 32 0 1 0-64 0Z" fill="#e1e1e1" p-id="1528"></path></svg>